<svg xmlns="http://www.w3.org/2000/svg" viewBox="0 0 512 512">
  <style>
    @media (prefers-color-scheme: dark) {
      path {
        fill: #ffffff;
      }
    }
  </style>
  <path fill="#e53935" d="M275.72796 237.00269h-38.72527v38.72527l38.57914-38.72527m-71.75134-71.75134-38.72527 38.72527h38.72527v-38.72527m-38.72527 71.75134v-33.02607L93.5 275.58183v33.31835l71.60522-71.89749m38.72527 0v38.72527l-71.75136 71.75136v-38.57914l71.75136-71.89749v38.72527m30.98021-84.02652h9.64479c.4384 3.9456 2.92266 5.55305 7.59892 5.55305 3.06879 0 6.13759-1.16906 6.13759-4.09173 0-2.92266-3.0688-3.65331-8.32959-4.96852-6.72212-1.46132-13.88264-3.65332-13.88264-11.69064 0-8.32959 6.72212-11.98292 15.34396-11.98292 8.47573 0 14.90559 3.79946 15.34399 11.98292h-9.35253c-.43839-2.92266-2.63038-4.67626-6.28372-4.67626-3.36105 0-5.55305 1.46133-5.55305 3.65332 0 2.6304 2.92266 3.36106 8.76798 4.53012 7.30665 1.75361 13.73652 3.94561 13.73652 12.27519 0 8.03731-7.01439 12.56745-15.92851 12.56745-10.22932 0-16.95145-4.53014-17.24371-13.15198m56.40738-1.31521c0-4.67625-1.89973-7.89117-5.55306-7.89117-3.9456 0-5.84532 3.36105-5.84532 7.89117 0 4.384 2.19199 7.59893 5.84532 7.59893 3.50719 0 5.55306-2.92266 5.55306-7.59893zm-20.02024-14.1749h8.47572v3.36107h.14614a10.083184 10.083184 0 0 1 8.47572-4.09174c7.30665 0 11.69064 6.28373 11.69064 14.61331 0 8.91412-4.67625 14.61331-11.98291 14.61331-3.5072 0-6.1376-1.46133-7.74506-3.65332h-.14613v11.98292h-8.76799v-36.82555m51.14658 13.88264c0-4.96852-2.04585-8.32958-5.84532-8.32958-3.94559 0-5.84532 3.36106-5.84532 8.32958 0 5.11466 1.89973 8.47573 5.84532 8.47573 3.79947 0 5.84532-3.36107 5.84532-8.47573zm-20.7509 0c0-8.32958 5.99146-14.61331 14.90558-14.61331a14.17491 14.17491 0 0 1 14.61331 14.61331c0 8.32959-5.84533 14.61331-14.61331 14.61331-8.76799 0-14.90558-6.28372-14.90558-14.61331m34.19516 6.576v-14.90558h-3.65334v-5.55306h3.65334v-8.76798h8.62184v8.76798h4.96853v5.55306h-4.96853v13.00584c0 2.192 1.16906 2.63039 3.0688 2.63039h1.89973v6.42987c-.73067.14613-2.33813.4384-4.82239.4384-5.11467 0-8.76798-1.75361-8.76798-7.59892m28.49595-20.45864h8.76797v27.76529h-8.76797zm0-10.95998h8.76797v7.16053h-8.76797v-7.16053m13.00584 10.95998h8.47572v3.79945h.14613c2.04587-2.92266 4.67626-4.53011 8.47572-4.53011 6.13759 0 9.64479 4.38399 9.64479 10.37544v18.12051h-8.76799v-16.22077c0-2.92267-1.46133-4.96854-4.38399-4.96854-2.92266 0-4.8224 2.48427-4.8224 5.84533v15.34398h-8.76798v-27.76529m35.94875-5.69919c.29225 0 .58453 0 .73066-.29226.29227 0 .29227-.29228.29227-.58454 0-.43839 0-.58454-.29227-.73067a1.4613309 1.4613309 0 0 0-.73066-.29226h-1.46133v1.89973zm-2.63041-2.77653h2.63041c.73066 0 1.16906.14613 1.46132.4384.4384.4384.58453.87679.58453 1.46133 0 .43839 0 .73067-.29226 1.02293-.14614.29227-.4384.4384-.8768.58453l1.46133 2.48427h-1.16906l-1.3152-2.33813h-1.46133v2.33813h-1.02294zm4.67626 7.16052a4.3839929 4.3839929 0 0 0 1.60747-1.7536c.4384-.73065.73066-1.46133.73066-2.33812a4.9685252 4.9685252 0 0 0-2.33813-4.09173 4.3839929 4.3839929 0 0 0-2.33812-.58453c-.8768 0-1.7536.14613-2.48427.58453-1.46133.8768-2.33813 2.33812-2.33813 4.09173 0 .87679.29227 1.60747.73067 2.33812.29226.73067.8768 1.3152 1.60746 1.7536.73067.29227 1.46133.58454 2.48427.58454.8768 0 1.60746-.29227 2.33812-.58454zm-5.26078.73066c-.87681-.58453-1.46134-1.16906-1.89974-2.04585-.58454-.87681-.73066-1.7536-.73066-2.92267 0-.8768.14612-1.89973.73066-2.63039.4384-.8768 1.02293-1.46133 1.89974-2.04587.87679-.4384 1.7536-.73065 2.92266-.73065 1.02293 0 1.89972.29225 2.77652.73065.8768.43841 1.46134 1.16907 1.89973 2.04587.58454.73066.73067 1.75359.73067 2.77653 0 1.02293-.14613 1.89972-.73067 2.92266a5.8453238 5.8453238 0 0 1-1.89973 1.89972c-.8768.4384-1.75359.73068-2.92265.73068-1.02294 0-1.89974-.29228-2.77653-.73068"/>
</svg>
