<svg xmlns="http://www.w3.org/2000/svg" id="logo" version="1.1" viewBox="0 0 341 197.6">
  <path id="path" fill="#e53935" d="M163 87.3h-26.5v26.5l26.4-26.5m-49.1-49.1L87.3 64.7h26.5V38.2M87.3 87.3V64.7l-49 49v22.8l49-49.2m26.5 0v26.5l-49.1 49.1v-26.4l49.1-49.2v26.5M135 56.3h6.6c.3 2.7 2 3.8 5.2 3.8 2.1 0 4.2-.8 4.2-2.8 0-2-2.1-2.5-5.7-3.4-4.6-1-9.5-2.5-9.5-8 0-5.7 4.6-8.2 10.5-8.2 5.8 0 10.2 2.6 10.5 8.2h-6.4c-.3-2-1.8-3.2-4.3-3.2-2.3 0-3.8 1-3.8 2.5 0 1.8 2 2.3 6 3.1 5 1.2 9.4 2.7 9.4 8.4 0 5.5-4.8 8.6-10.9 8.6-7 0-11.6-3.1-11.8-9m38.6-.9c0-3.2-1.3-5.4-3.8-5.4-2.7 0-4 2.3-4 5.4 0 3 1.5 5.2 4 5.2 2.4 0 3.8-2 3.8-5.2zm-13.7-9.7h5.8V48h.1a6.9 6.9 0 0 1 5.8-2.8c5 0 8 4.3 8 10 0 6.1-3.2 10-8.2 10-2.4 0-4.2-1-5.3-2.5h-.1v8.2h-6V45.7m35 9.5c0-3.4-1.4-5.7-4-5.7-2.7 0-4 2.3-4 5.7 0 3.5 1.3 5.8 4 5.8 2.6 0 4-2.3 4-5.8zm-14.2 0c0-5.7 4.1-10 10.2-10a9.7 9.7 0 0 1 10 10c0 5.7-4 10-10 10s-10.2-4.3-10.2-10m23.4 4.5V49.5h-2.5v-3.8h2.5v-6h5.9v6h3.4v3.8h-3.4v8.9c0 1.5.8 1.8 2.1 1.8h1.3v4.4c-.5.1-1.6.3-3.3.3-3.5 0-6-1.2-6-5.2m19.5-14h6v19h-6zm0-7.5h6v4.9h-6v-4.9m8.9 7.5h5.8v2.6h.1c1.4-2 3.2-3.1 5.8-3.1 4.2 0 6.6 3 6.6 7.1v12.4h-6V53.6c0-2-1-3.4-3-3.4s-3.3 1.7-3.3 4v10.5h-6v-19m24.6-3.9c.2 0 .4 0 .5-.2.2 0 .2-.2.2-.4 0-.3 0-.4-.2-.5a1 1 0 0 0-.5-.2h-1v1.3zm-1.8-1.9h1.8c.5 0 .8.1 1 .3.3.3.4.6.4 1 0 .3 0 .5-.2.7-.1.2-.3.3-.6.4l1 1.7h-.8l-.9-1.6h-1V44h-.7zm3.2 4.9a3 3 0 0 0 1.1-1.2c.3-.5.5-1 .5-1.6a3.4 3.4 0 0 0-1.6-2.8 3 3 0 0 0-1.6-.4c-.6 0-1.2.1-1.7.4-1 .6-1.6 1.6-1.6 2.8 0 .6.2 1.1.5 1.6.2.5.6.9 1.1 1.2.5.2 1 .4 1.7.4.6 0 1.1-.2 1.6-.4zm-3.6.5c-.6-.4-1-.8-1.3-1.4-.4-.6-.5-1.2-.5-2 0-.6.1-1.3.5-1.8.3-.6.7-1 1.3-1.4.6-.3 1.2-.5 2-.5.7 0 1.3.2 1.9.5.6.3 1 .8 1.3 1.4.4.5.5 1.2.5 1.9s-.1 1.3-.5 2a4 4 0 0 1-1.3 1.3c-.6.3-1.2.5-2 .5-.7 0-1.3-.2-1.9-.5"/>
</svg>
