<svg xmlns="http://www.w3.org/2000/svg" viewBox="0 0 341 197.6">
  <style>
        path {
            fill: black;
        }
        @media (prefers-color-scheme: dark) {
            path { fill: white; }
        }
  </style>
  <path d="M163 87.3h-26.5v26.5l26.4-26.5m-49.1-49.1L87.3 64.7h26.5V38.2M87.3 87.3V64.7l-49 49v22.8l49-49.2m26.5 0v26.5l-49.1 49.1v-26.4l49.1-49.2v26.5M135 56.3h6.6c.3 2.7 2 3.8 5.2 3.8 2.1 0 4.2-.8 4.2-2.8 0-2-2.1-2.5-5.7-3.4-4.6-1-9.5-2.5-9.5-8 0-5.7 4.6-8.2 10.5-8.2 5.8 0 10.2 2.6 10.5 8.2h-6.4c-.3-2-1.8-3.2-4.3-3.2-2.3 0-3.8 1-3.8 2.5 0 1.8 2 2.3 6 3.1 5 1.2 9.4 2.7 9.4 8.4 0 5.5-4.8 8.6-10.9 8.6-7 0-11.6-3.1-11.8-9m38.6-.9c0-3.2-1.3-5.4-3.8-5.4-2.7 0-4 2.3-4 5.4 0 3 1.5 5.2 4 5.2 2.4 0 3.8-2 3.8-5.2zm-13.7-9.7h5.8V48h.1a6.9 6.9 0 0 1 5.8-2.8c5 0 8 4.3 8 10 0 6.1-3.2 10-8.2 10-2.4 0-4.2-1-5.3-2.5h-.1v8.2h-6V45.7m35 9.5c0-3.4-1.4-5.7-4-5.7-2.7 0-4 2.3-4 5.7 0 3.5 1.3 5.8 4 5.8 2.6 0 4-2.3 4-5.8zm-14.2 0c0-5.7 4.1-10 10.2-10a9.7 9.7 0 0 1 10 10c0 5.7-4 10-10 10s-10.2-4.3-10.2-10m23.4 4.5V49.5h-2.5v-3.8h2.5v-6h5.9v6h3.4v3.8h-3.4v8.9c0 1.5.8 1.8 2.1 1.8h1.3v4.4c-.5.1-1.6.3-3.3.3-3.5 0-6-1.2-6-5.2m19.5-14h6v19h-6zm0-7.5h6v4.9h-6v-4.9m8.9 7.5h5.8v2.6h.1c1.4-2 3.2-3.1 5.8-3.1 4.2 0 6.6 3 6.6 7.1v12.4h-6V53.6c0-2-1-3.4-3-3.4s-3.3 1.7-3.3 4v10.5h-6v-19m-34.8 49.6c2.1 0 3.4-1.2 3.4-3 0-2.2-1.5-3.3-3.5-3.3h-5.8v6.3zm-.5-10.7c1.8 0 3.1-1 3.1-2.7 0-1.6-1.2-2.6-3.1-2.6h-5.4v5.3zM185.5 74h12.7c2.8 0 4.8.7 6.2 1.8 1.5 1.3 2.3 3 2.3 5.1 0 2.6-1.4 4.3-3.7 5.2 2.9 1 4.7 3.4 4.7 6.6a7 7 0 0 1-2.7 5.9 10.3 10.3 0 0 1-6.5 1.9h-13V74m24.4 7.6h6v19h-6zm0-7.5h6V79h-6v-4.9M231.4 89c-.2-2.2-1.6-3.6-3.6-3.6-2.3 0-3.5 1.4-3.9 3.7zM218 91c0-5.6 4-10 9.7-10 2.7 0 4.8 1 6.5 2.4 2.2 2.1 3.3 5.4 3.3 9.2h-13.6c.4 2.6 1.8 4.2 4.2 4.2 1.6 0 2.7-.7 3.2-1.9h5.9a7.7 7.7 0 0 1-3.2 4.5 10 10 0 0 1-6 1.7 9.6 9.6 0 0 1-10-10m21.5-9.5h5.8v2.6h.1c1.4-2 3.3-3.1 5.9-3.1 4.1 0 6.6 3 6.6 7.1v12.4h-6V89.5c0-2-1-3.4-3-3.4s-3.3 1.7-3.3 4v10.5h-6v-19m21 0h5.8v2.6h.1c1.4-2 3.2-3.1 5.9-3.1 4.1 0 6.5 3 6.5 7.1v12.4h-6V89.5c0-2-1-3.4-3-3.4s-3.3 1.7-3.3 4v10.5h-6v-19m33.7 7.4c-.3-2.2-1.7-3.6-3.6-3.6-2.3 0-3.5 1.4-4 3.7zm-13.5 2c0-5.6 4-10 9.8-10 2.7 0 4.8 1 6.4 2.4 2.3 2.1 3.4 5.4 3.4 9.2h-13.6c.3 2.6 1.7 4.2 4.2 4.2 1.6 0 2.6-.7 3.2-1.9h5.8a7.7 7.7 0 0 1-3.2 4.5 10 10 0 0 1-5.9 1.7 9.6 9.6 0 0 1-10-10m-23.7-49.3c.2 0 .4 0 .5-.2.2 0 .2-.2.2-.4 0-.3 0-.4-.2-.5a1 1 0 0 0-.5-.2h-1v1.3zm-1.8-1.9h1.8c.5 0 .8.1 1 .3.3.3.4.6.4 1 0 .3 0 .5-.2.7-.1.2-.3.3-.6.4l1 1.7h-.8l-.9-1.6h-1V44h-.7zm3.2 4.9a3 3 0 0 0 1.1-1.2c.3-.5.5-1 .5-1.6 0-.6-.2-1.2-.5-1.7a3 3 0 0 0-1.1-1.1 3 3 0 0 0-1.6-.4c-.6 0-1.2.1-1.7.4a3.2 3.2 0 0 0-1.6 2.8c0 .6.2 1.1.5 1.6.2.5.6.9 1.1 1.2.5.2 1 .4 1.7.4.6 0 1.1-.2 1.6-.4zm-3.6.5c-.6-.4-1-.8-1.3-1.4-.4-.6-.5-1.2-.5-2 0-.6.1-1.3.5-1.8.3-.6.7-1 1.3-1.4.6-.3 1.2-.5 2-.5.7 0 1.3.2 1.9.5.6.3 1 .8 1.3 1.4.4.5.5 1.2.5 1.9s-.1 1.3-.5 2a4 4 0 0 1-1.3 1.3c-.6.3-1.2.5-2 .5-.7 0-1.3-.2-1.9-.5m-69.9 74.2c0-4.2 2.7-7.4 7-7.4 1.6 0 3 .5 4 1.3 1.2.9 1.9 2.3 2 3.8h-3.4a2.5 2.5 0 0 0-2.7-2.2c-2.3 0-3.4 2-3.4 4.5 0 2.6 1.3 4.4 3.4 4.4 1.6 0 2.6-1 2.8-2.3h3.4a5.5 5.5 0 0 1-1.7 3.6c-1 1-2.5 1.6-4.5 1.6-4 0-6.9-3.1-6.9-7.3m14.1 3.5v-6.6h3.2v6c0 1 .5 1.6 1.5 1.6s1.8-.8 1.8-2v-5.6h3.2v10h-3.1v-1.2c-.8 1-1.7 1.5-3 1.5-2.4 0-3.6-1.5-3.6-3.7m11.2-10.6h3.3v14h-3.3v-14m5.6 11.4v-5.4h-1.3v-2h1.3v-3.2h3.1v3.2h1.8v2h-1.8v4.7c0 .8.4 1 1.1 1h.7v2.3c-.2 0-.8.2-1.7.2-1.9 0-3.2-.6-3.2-2.8m6-.8v-6.6h3.2v6c0 1 .5 1.6 1.5 1.6 1.1 0 1.8-.8 1.8-2v-5.6h3.2v10h-3v-1.2h-.1c-.8 1-1.6 1.5-3 1.5-2.4 0-3.6-1.5-3.6-3.7m11.2-6.6h3v1.6h.1c.8-1.2 1.6-1.8 2.8-1.8l.6.1v2.8c-2-.3-3.3.7-3.3 2.8v4.6h-3.2v-10.1m14 3.9c0-1.2-.8-2-1.9-2-1.2 0-1.8.8-2 2zm-7.1 1.1c0-3 2.1-5.3 5.2-5.3a5 5 0 0 1 3.4 1.3c1.2 1 1.8 2.8 1.8 4.8h-7.3c.2 1.4 1 2.2 2.3 2.2.8 0 1.4-.3 1.7-1h3.1c-.2 1-.8 1.8-1.7 2.4-.8.6-1.9 1-3.1 1a5 5 0 0 1-5.4-5.4m-47.9 20.5c1.2 0 1.9-.6 1.9-1.7 0-1-.9-1.6-2-1.6h-3v3.3zm-.3-5.7c1 0 1.7-.5 1.7-1.4 0-.9-.6-1.4-1.6-1.4h-3v2.8zm-6.2-5.6h6.8a5 5 0 0 1 3.2 1c.8.7 1.3 1.6 1.3 2.7 0 1.4-.8 2.3-2 2.7v.1c1.5.5 2.5 1.8 2.5 3.4 0 1.5-.5 2.5-1.4 3.2-.9.6-2 1-3.5 1h-7v-14m13.1 3.9h3.2v10h-3.2zm0-4h3.2v2.6h-3.2v-2.6m11.8 9.1c0-1.8-.8-3-2.2-3-1.4 0-2.1 1.2-2.1 3s.7 3 2.1 3c1.4 0 2.2-1.2 2.2-3zm-7.6 0c0-3 2.2-5.3 5.4-5.3 3.3 0 5.4 2.3 5.4 5.3s-2.1 5.3-5.4 5.3a5.2 5.2 0 0 1-5.4-5.3m18.8 0c0-1.7-.7-3-2.1-3-1.3 0-2 1.2-2 3 0 1.7.7 2.8 2 2.8s2-1.2 2-2.8zm-7.4 0c0-3.2 1.8-5.4 4.4-5.4a3 3 0 0 1 2.8 1.5v-5.2h3.3v14h-3v-1.3h-.1c-.6 1-1.7 1.7-3 1.7-2.6 0-4.4-2-4.4-5.3m12-5.1h3.2v10h-3.2zm0-4h3.2v2.6h-3.2v-2.6m3.9 4h3.3l1.4 4.6.6 2 .6-2 1.3-4.6h3.3l-3.5 10h-3.5l-3.5-10m17.4 4c0-1.2-.8-2-1.9-2-1.2 0-1.8.8-2 2zm-7 1c0-3 2-5.3 5-5.3a5 5 0 0 1 3.5 1.3c1.2 1 1.8 2.8 1.8 4.9h-7.2c.1 1.3.9 2.2 2.2 2.2.9 0 1.4-.4 1.7-1h3.1a4 4 0 0 1-1.7 2.4 5 5 0 0 1-3.1.9 5 5 0 0 1-5.4-5.4m11.5-5h3v1.6c.8-1.2 1.6-1.7 2.8-1.7h.7v2.8h-.1c-2-.3-3.2.7-3.2 2.9v4.5H252v-10m6.9 6.7h3c.1 1 .8 1.5 1.9 1.5 1 0 1.5-.3 1.5-1 0-.9-1.2-1-2.5-1.2-1.8-.3-3.6-.8-3.6-3.1 0-2.2 2-3.3 4.3-3.3 2.8 0 4.4 1.3 4.5 3.3h-3c0-1-.6-1.2-1.5-1.2-.8 0-1.4.3-1.4.9 0 .7 1.1.8 2.4 1 1.8.3 3.9.8 3.9 3.4 0 2.2-2 3.3-4.6 3.3-3 0-4.8-1.4-5-3.6m10.6-6.8h3.2v10h-3.2zm0-4h3.2v2.6h-3.2v-2.6M275 142v-5.4h-1.4v-2h1.3v-3.2h3.1v3.2h1.9v2H278v4.8c0 .7.5 1 1.2 1h.7v2.3l-1.8.1c-1.9 0-3.2-.6-3.2-2.8m10.6-11.5h3.7l-2.4 3h-2.4zm2.1 8c-.1-1.1-.9-1.9-1.9-1.9-1.2 0-1.9.8-2 2zm-7.1 1.1c0-3 2-5.3 5.1-5.3a5 5 0 0 1 3.5 1.3c1.2 1 1.8 2.8 1.7 4.9h-7.2c.2 1.3 1 2.2 2.3 2.2.8 0 1.4-.4 1.6-1h3.2a4 4 0 0 1-1.7 2.4c-.9.6-1.9.9-3.2.9-3.3 0-5.3-2.3-5.3-5.4M185 158.5h3.5c.2 1.4 1 2 2.8 2 1.1 0 2.2-.4 2.2-1.5 0-1-1.1-1.3-3-1.8-2.5-.6-5-1.3-5-4.3s2.4-4.3 5.5-4.3c3 0 5.4 1.4 5.6 4.3h-3.4c-.2-1-1-1.6-2.3-1.6-1.2 0-2 .5-2 1.3 0 1 1 1.2 3.2 1.7 2.6.6 5 1.4 5 4.4 0 3-2.6 4.6-5.8 4.6-3.8 0-6.2-1.7-6.3-4.8m20.5-.5c0-1.7-.7-2.9-2-2.9-1.4 0-2.1 1.3-2.1 3 0 1.5.7 2.7 2.1 2.7 1.2 0 2-1 2-2.8zm-7.2-5.1h3v1.2c.8-1 1.7-1.5 3.1-1.5 2.7 0 4.3 2.3 4.3 5.3 0 3.3-1.7 5.3-4.4 5.3-1.3 0-2.2-.5-2.8-1.3v4.3h-3.2V153m18.6 5c0-2-.8-3.1-2.2-3.1-1.4 0-2.1 1.2-2.1 3s.7 3 2.1 3c1.4 0 2.2-1.2 2.2-3zm-7.5 0c0-3.1 2.1-5.4 5.3-5.4 3.3 0 5.4 2.3 5.4 5.3s-2.1 5.3-5.4 5.3a5.2 5.2 0 0 1-5.3-5.3m11.8-5h3v1.5h.1c.7-1.2 1.5-1.7 2.8-1.7h.6v2.8h-.1c-2-.2-3.2.7-3.2 3v4.4h-3.2v-10m8.5 7.4v-5.4h-1.4v-2h1.4v-3.2h3.1v3.2h1.8v2h-1.8v4.7c0 .8.4 1 1.1 1h.7v2.3l-1.7.1c-1.9 0-3.2-.6-3.2-2.7"/>
</svg>
