<svg xmlns="http://www.w3.org/2000/svg" viewBox="0 0 60 34">
  <style>
        path {
            fill: black;
        }
        @media (prefers-color-scheme: dark) {
            path { fill: white; }
        }
  </style>
  <path d="M33.43 14.15h-7v7l7-7m-13-13-7 7h7v-7m-7 13v-6l-13 13v6l13-13m7 0v7l-13 13v-7l13-13v7m5.61-15.2h1.74c.08.7.54 1 1.37 1 .57 0 1.13-.21 1.13-.74 0-.56-.57-.67-1.53-.9-1.21-.3-2.5-.66-2.5-2.13 0-1.5 1.22-2.15 2.78-2.15 1.52 0 2.7.68 2.76 2.15H30.1c-.07-.54-.48-.84-1.13-.84-.6 0-1 .26-1 .65 0 .5.53.6 1.58.84 1.3.3 2.48.7 2.48 2.2 0 1.47-1.25 2.29-2.87 2.29-1.86 0-3.08-.83-3.12-2.37m10.19-.25c0-.86-.32-1.43-1-1.43-.7 0-1.05.62-1.05 1.43 0 .82.4 1.37 1.08 1.37.6 0 .97-.52.97-1.37zm-3.6-2.56h1.53v.6h.03c.34-.44.83-.75 1.52-.75 1.33 0 2.14 1.15 2.14 2.65 0 1.63-.87 2.67-2.18 2.67-.65 0-1.1-.26-1.42-.68h-.02V9.8h-1.6V3.14m9.27 2.51c0-.9-.37-1.52-1.07-1.52-.7 0-1.05.61-1.05 1.52s.36 1.52 1.05 1.52c.7 0 1.07-.6 1.07-1.52zm-3.74 0c0-1.5 1.08-2.65 2.68-2.65a2.55 2.55 0 0 1 2.68 2.65 2.56 2.56 0 0 1-2.68 2.66 2.57 2.57 0 0 1-2.68-2.66m6.19 1.18v-2.7h-.67v-1h.67V1.56h1.55v1.59h.91v1h-.9V6.5c0 .39.2.48.55.48h.35v1.16c-.13.04-.44.08-.87.08-.93 0-1.6-.3-1.6-1.38m5.16-3.7h1.59v5h-1.6zm0-1.99h1.59v1.3h-1.6v-1.3m2.36 1.99h1.54v.68h.03c.37-.53.85-.83 1.54-.83 1.1 0 1.75.78 1.75 1.9v3.26h-1.6V5.2c0-.53-.26-.89-.78-.89-.53 0-.88.44-.88 1.06v2.77h-1.6v-5m6.5-1.04c.07 0 .12-.01.16-.04.03-.03.05-.07.05-.13s-.02-.1-.06-.13a.26.26 0 0 0-.15-.04h-.26v.34zm-.45-.49h.46c.12 0 .22.02.28.08.07.06.1.14.1.24 0 .08-.02.14-.05.2a.3.3 0 0 1-.16.1l.26.44h-.22l-.23-.41h-.25v.41h-.19zm.83 1.27a.8.8 0 0 0 .3-.3.85.85 0 0 0 .12-.43c0-.16-.04-.3-.11-.43a.8.8 0 0 0-.3-.3.87.87 0 0 0-.44-.12c-.16 0-.3.04-.43.11a.81.81 0 0 0-.42.74c0 .15.03.3.1.43.08.13.18.23.32.3.13.08.27.11.43.11.16 0 .3-.03.43-.1zm-.94.14a.94.94 0 0 1-.36-.36 1.02 1.02 0 0 1-.13-.51.96.96 0 0 1 .49-.87.96.96 0 0 1 .5-.13 1 1 0 0 1 .52.13c.15.09.27.2.36.36.08.15.12.32.12.5 0 .2-.04.37-.13.52a.95.95 0 0 1-.35.36 1 1 0 0 1-.51.13.97.97 0 0 1-.51-.13"/>
</svg>
